<mxfile host="app.diagrams.net" modified="2023-05-13T21:41:58.234Z" agent="Mozilla/5.0 (Windows NT 10.0; Win64; x64) AppleWebKit/537.36 (KHTML, like Gecko) Chrome/113.0.0.0 Safari/537.36" etag="j4Orc9w4Lqa7eATpizhS" version="21.2.1" type="device">
  <diagram name="Page-1" id="e7e014a7-5840-1c2e-5031-d8a46d1fe8dd">
    <mxGraphModel dx="1318" dy="522" grid="1" gridSize="10" guides="1" tooltips="1" connect="1" arrows="1" fold="1" page="1" pageScale="1" pageWidth="1169" pageHeight="826" background="none" math="0" shadow="0">
      <root>
        <mxCell id="0" />
        <mxCell id="1" parent="0" />
        <mxCell id="UrHmr3pfUTmd6LyERGNY-57" value="Libro" style="swimlane;fontStyle=0;childLayout=stackLayout;horizontal=1;startSize=26;fillColor=#fff2cc;horizontalStack=0;resizeParent=1;resizeParentMax=0;resizeLast=0;collapsible=1;marginBottom=0;whiteSpace=wrap;html=1;strokeColor=#d6b656;" parent="1" vertex="1">
          <mxGeometry x="800" y="230" width="230" height="90" as="geometry" />
        </mxCell>
        <mxCell id="UrHmr3pfUTmd6LyERGNY-58" value="-titulo: string&lt;br&gt;-autor: string&lt;br&gt;-cantidad: integer&lt;br&gt;-calificaciones: arrayList&amp;lt;Calificacion&amp;gt;" style="text;strokeColor=#82b366;fillColor=#d5e8d4;align=left;verticalAlign=top;spacingLeft=4;spacingRight=4;overflow=hidden;rotatable=0;points=[[0,0.5],[1,0.5]];portConstraint=eastwest;whiteSpace=wrap;html=1;" parent="UrHmr3pfUTmd6LyERGNY-57" vertex="1">
          <mxGeometry y="26" width="230" height="64" as="geometry" />
        </mxCell>
        <mxCell id="UrHmr3pfUTmd6LyERGNY-59" value="+getTitulo()&lt;br&gt;+getAutor()&lt;br&gt;+getCantidad()&lt;br&gt;+getCalificaciones()&lt;br&gt;+prestar()&lt;br&gt;+devolver()&lt;br&gt;+calificar()" style="text;strokeColor=#6c8ebf;fillColor=#dae8fc;align=left;verticalAlign=top;spacingLeft=4;spacingRight=4;overflow=hidden;rotatable=0;points=[[0,0.5],[1,0.5]];portConstraint=eastwest;whiteSpace=wrap;html=1;" parent="1" vertex="1">
          <mxGeometry x="800" y="320" width="230" height="150" as="geometry" />
        </mxCell>
        <mxCell id="UrHmr3pfUTmd6LyERGNY-60" value="Calificacion" style="swimlane;fontStyle=0;childLayout=stackLayout;horizontal=1;startSize=26;fillColor=#fff2cc;horizontalStack=0;resizeParent=1;resizeParentMax=0;resizeLast=0;collapsible=1;marginBottom=0;whiteSpace=wrap;html=1;strokeColor=#d6b656;" parent="1" vertex="1">
          <mxGeometry x="800" y="495" width="300" height="90" as="geometry" />
        </mxCell>
        <mxCell id="UrHmr3pfUTmd6LyERGNY-61" value="-comentario: string&lt;br&gt;-puntuacion: integer" style="text;strokeColor=#82b366;fillColor=#d5e8d4;align=left;verticalAlign=top;spacingLeft=4;spacingRight=4;overflow=hidden;rotatable=0;points=[[0,0.5],[1,0.5]];portConstraint=eastwest;whiteSpace=wrap;html=1;" parent="UrHmr3pfUTmd6LyERGNY-60" vertex="1">
          <mxGeometry y="26" width="300" height="64" as="geometry" />
        </mxCell>
        <mxCell id="UrHmr3pfUTmd6LyERGNY-62" value="+Calificacion()&lt;br&gt;+getComentario()&lt;br&gt;+getPuntuacion()" style="text;strokeColor=#6c8ebf;fillColor=#dae8fc;align=left;verticalAlign=top;spacingLeft=4;spacingRight=4;overflow=hidden;rotatable=0;points=[[0,0.5],[1,0.5]];portConstraint=eastwest;whiteSpace=wrap;html=1;" parent="1" vertex="1">
          <mxGeometry x="800" y="585" width="300" height="90" as="geometry" />
        </mxCell>
        <mxCell id="UrHmr3pfUTmd6LyERGNY-64" value="Reserva" style="swimlane;fontStyle=0;childLayout=stackLayout;horizontal=1;startSize=26;fillColor=#fff2cc;horizontalStack=0;resizeParent=1;resizeParentMax=0;resizeLast=0;collapsible=1;marginBottom=0;whiteSpace=wrap;html=1;strokeColor=#d6b656;" parent="1" vertex="1">
          <mxGeometry x="440" y="335" width="240" height="90" as="geometry" />
        </mxCell>
        <mxCell id="UrHmr3pfUTmd6LyERGNY-65" value="-usuario: Usuario&lt;br&gt;-libro: Libro&lt;br&gt;-estado: Estado" style="text;strokeColor=#82b366;fillColor=#d5e8d4;align=left;verticalAlign=top;spacingLeft=4;spacingRight=4;overflow=hidden;rotatable=0;points=[[0,0.5],[1,0.5]];portConstraint=eastwest;whiteSpace=wrap;html=1;" parent="UrHmr3pfUTmd6LyERGNY-64" vertex="1">
          <mxGeometry y="26" width="240" height="64" as="geometry" />
        </mxCell>
        <mxCell id="UrHmr3pfUTmd6LyERGNY-66" value="+getUsuario()&lt;br&gt;+getLibro()&lt;br&gt;+getEstado()&lt;br&gt;" style="text;strokeColor=#6c8ebf;fillColor=#dae8fc;align=left;verticalAlign=top;spacingLeft=4;spacingRight=4;overflow=hidden;rotatable=0;points=[[0,0.5],[1,0.5]];portConstraint=eastwest;whiteSpace=wrap;html=1;" parent="1" vertex="1">
          <mxGeometry x="440" y="421" width="240" height="74" as="geometry" />
        </mxCell>
        <mxCell id="UrHmr3pfUTmd6LyERGNY-67" value="Estado" style="swimlane;fontStyle=0;childLayout=stackLayout;horizontal=1;startSize=26;fillColor=#fff2cc;horizontalStack=0;resizeParent=1;resizeParentMax=0;resizeLast=0;collapsible=1;marginBottom=0;whiteSpace=wrap;html=1;strokeColor=#d6b656;" parent="1" vertex="1">
          <mxGeometry x="70" y="548" width="300" height="90" as="geometry" />
        </mxCell>
        <mxCell id="UrHmr3pfUTmd6LyERGNY-68" value="DISPONIBLE&lt;br&gt;PRESTADO&lt;br&gt;RETRASO" style="text;strokeColor=#82b366;fillColor=#d5e8d4;align=left;verticalAlign=top;spacingLeft=4;spacingRight=4;overflow=hidden;rotatable=0;points=[[0,0.5],[1,0.5]];portConstraint=eastwest;whiteSpace=wrap;html=1;" parent="UrHmr3pfUTmd6LyERGNY-67" vertex="1">
          <mxGeometry y="26" width="300" height="64" as="geometry" />
        </mxCell>
        <mxCell id="0uXt8LhpZuC11UzZuWgx-11" value="&lt;i&gt;Usuario&lt;/i&gt;" style="swimlane;fontStyle=0;childLayout=stackLayout;horizontal=1;startSize=26;fillColor=#fff2cc;horizontalStack=0;resizeParent=1;resizeParentMax=0;resizeLast=0;collapsible=1;marginBottom=0;whiteSpace=wrap;html=1;strokeColor=#d6b656;" vertex="1" parent="1">
          <mxGeometry x="90" y="50" width="180" height="90" as="geometry" />
        </mxCell>
        <mxCell id="0uXt8LhpZuC11UzZuWgx-12" value="+register()" style="text;strokeColor=#6c8ebf;fillColor=#dae8fc;align=left;verticalAlign=top;spacingLeft=4;spacingRight=4;overflow=hidden;rotatable=0;points=[[0,0.5],[1,0.5]];portConstraint=eastwest;whiteSpace=wrap;html=1;" vertex="1" parent="1">
          <mxGeometry x="90" y="140" width="180" height="80" as="geometry" />
        </mxCell>
        <mxCell id="0uXt8LhpZuC11UzZuWgx-13" value="-nombre : string&lt;br&gt;-email: string&lt;br&gt;" style="text;strokeColor=#82b366;fillColor=#d5e8d4;align=left;verticalAlign=top;spacingLeft=4;spacingRight=4;overflow=hidden;rotatable=0;points=[[0,0.5],[1,0.5]];portConstraint=eastwest;whiteSpace=wrap;html=1;" vertex="1" parent="1">
          <mxGeometry x="90" y="76" width="180" height="64" as="geometry" />
        </mxCell>
        <mxCell id="0uXt8LhpZuC11UzZuWgx-20" value="Administrador" style="swimlane;fontStyle=0;childLayout=stackLayout;horizontal=1;startSize=26;fillColor=#fff2cc;horizontalStack=0;resizeParent=1;resizeParentMax=0;resizeLast=0;collapsible=1;marginBottom=0;whiteSpace=wrap;html=1;strokeColor=#d6b656;" vertex="1" parent="1">
          <mxGeometry x="10" y="260" width="160" height="90" as="geometry" />
        </mxCell>
        <mxCell id="0uXt8LhpZuC11UzZuWgx-21" value="+getNombre()&lt;br&gt;+getEmail()&lt;br&gt;+updateCatalog()" style="text;strokeColor=#6c8ebf;fillColor=#dae8fc;align=left;verticalAlign=top;spacingLeft=4;spacingRight=4;overflow=hidden;rotatable=0;points=[[0,0.5],[1,0.5]];portConstraint=eastwest;whiteSpace=wrap;html=1;" vertex="1" parent="1">
          <mxGeometry x="10" y="350" width="160" height="130" as="geometry" />
        </mxCell>
        <mxCell id="0uXt8LhpZuC11UzZuWgx-22" value="" style="text;strokeColor=#82b366;fillColor=#d5e8d4;align=left;verticalAlign=top;spacingLeft=4;spacingRight=4;overflow=hidden;rotatable=0;points=[[0,0.5],[1,0.5]];portConstraint=eastwest;whiteSpace=wrap;html=1;" vertex="1" parent="1">
          <mxGeometry x="10" y="286" width="160" height="64" as="geometry" />
        </mxCell>
        <mxCell id="0uXt8LhpZuC11UzZuWgx-23" value="Cliente" style="swimlane;fontStyle=0;childLayout=stackLayout;horizontal=1;startSize=26;fillColor=#fff2cc;horizontalStack=0;resizeParent=1;resizeParentMax=0;resizeLast=0;collapsible=1;marginBottom=0;whiteSpace=wrap;html=1;strokeColor=#d6b656;" vertex="1" parent="1">
          <mxGeometry x="200" y="260" width="160" height="90" as="geometry" />
        </mxCell>
        <mxCell id="0uXt8LhpZuC11UzZuWgx-24" value="+getNombre()&lt;br&gt;+getEmail()&lt;br&gt;+getReservas()&lt;br&gt;+reservar()&lt;br&gt;+devolver()" style="text;strokeColor=#6c8ebf;fillColor=#dae8fc;align=left;verticalAlign=top;spacingLeft=4;spacingRight=4;overflow=hidden;rotatable=0;points=[[0,0.5],[1,0.5]];portConstraint=eastwest;whiteSpace=wrap;html=1;" vertex="1" parent="1">
          <mxGeometry x="200" y="350" width="160" height="130" as="geometry" />
        </mxCell>
        <mxCell id="0uXt8LhpZuC11UzZuWgx-25" value="&lt;br&gt;-reservas: arrayList&amp;lt;Reserva&amp;gt;" style="text;strokeColor=#82b366;fillColor=#d5e8d4;align=left;verticalAlign=top;spacingLeft=4;spacingRight=4;overflow=hidden;rotatable=0;points=[[0,0.5],[1,0.5]];portConstraint=eastwest;whiteSpace=wrap;html=1;" vertex="1" parent="1">
          <mxGeometry x="200" y="286" width="160" height="64" as="geometry" />
        </mxCell>
        <mxCell id="0uXt8LhpZuC11UzZuWgx-29" value="" style="endArrow=diamondThin;endFill=1;endSize=24;html=1;rounded=0;entryX=1;entryY=0.5;entryDx=0;entryDy=0;exitX=-0.011;exitY=0.854;exitDx=0;exitDy=0;exitPerimeter=0;" edge="1" parent="1" source="UrHmr3pfUTmd6LyERGNY-65" target="0uXt8LhpZuC11UzZuWgx-24">
          <mxGeometry width="160" relative="1" as="geometry">
            <mxPoint x="430" y="415" as="sourcePoint" />
            <mxPoint x="600" y="410" as="targetPoint" />
            <Array as="points">
              <mxPoint x="370" y="415" />
            </Array>
          </mxGeometry>
        </mxCell>
        <mxCell id="0uXt8LhpZuC11UzZuWgx-30" value="" style="endArrow=block;endSize=16;endFill=0;html=1;rounded=0;exitX=0.25;exitY=0;exitDx=0;exitDy=0;entryX=-0.018;entryY=0.269;entryDx=0;entryDy=0;entryPerimeter=0;" edge="1" parent="1" source="0uXt8LhpZuC11UzZuWgx-20" target="0uXt8LhpZuC11UzZuWgx-12">
          <mxGeometry width="160" relative="1" as="geometry">
            <mxPoint x="440" y="290" as="sourcePoint" />
            <mxPoint x="600" y="290" as="targetPoint" />
            <Array as="points">
              <mxPoint x="50" y="162" />
            </Array>
          </mxGeometry>
        </mxCell>
        <mxCell id="0uXt8LhpZuC11UzZuWgx-31" value="" style="endArrow=block;endSize=16;endFill=0;html=1;rounded=0;exitX=0.25;exitY=0;exitDx=0;exitDy=0;entryX=1;entryY=0.275;entryDx=0;entryDy=0;entryPerimeter=0;" edge="1" parent="1" target="0uXt8LhpZuC11UzZuWgx-12">
          <mxGeometry width="160" relative="1" as="geometry">
            <mxPoint x="300" y="260" as="sourcePoint" />
            <mxPoint x="337" y="162" as="targetPoint" />
            <Array as="points">
              <mxPoint x="300" y="162" />
            </Array>
          </mxGeometry>
        </mxCell>
        <mxCell id="0uXt8LhpZuC11UzZuWgx-32" value="" style="endArrow=none;html=1;rounded=0;entryX=0;entryY=0.75;entryDx=0;entryDy=0;" edge="1" parent="1" target="UrHmr3pfUTmd6LyERGNY-57">
          <mxGeometry width="50" height="50" relative="1" as="geometry">
            <mxPoint x="680" y="400" as="sourcePoint" />
            <mxPoint x="540" y="30" as="targetPoint" />
            <Array as="points">
              <mxPoint x="730" y="400" />
              <mxPoint x="730" y="297" />
            </Array>
          </mxGeometry>
        </mxCell>
        <mxCell id="0uXt8LhpZuC11UzZuWgx-33" value="" style="endArrow=none;html=1;edgeStyle=orthogonalEdgeStyle;rounded=0;exitX=0.399;exitY=-0.035;exitDx=0;exitDy=0;exitPerimeter=0;" edge="1" parent="1" source="UrHmr3pfUTmd6LyERGNY-60">
          <mxGeometry relative="1" as="geometry">
            <mxPoint x="760" y="470" as="sourcePoint" />
            <mxPoint x="920" y="470" as="targetPoint" />
          </mxGeometry>
        </mxCell>
        <mxCell id="0uXt8LhpZuC11UzZuWgx-36" value="" style="endArrow=none;html=1;edgeStyle=orthogonalEdgeStyle;rounded=0;exitX=1;exitY=0.5;exitDx=0;exitDy=0;" edge="1" parent="1" source="UrHmr3pfUTmd6LyERGNY-68">
          <mxGeometry relative="1" as="geometry">
            <mxPoint x="640" y="414.40999999999997" as="sourcePoint" />
            <mxPoint x="800" y="414.40999999999997" as="targetPoint" />
            <Array as="points">
              <mxPoint x="750" y="606" />
              <mxPoint x="750" y="414" />
            </Array>
          </mxGeometry>
        </mxCell>
        <mxCell id="0uXt8LhpZuC11UzZuWgx-39" value="" style="endArrow=none;html=1;edgeStyle=orthogonalEdgeStyle;rounded=0;entryX=0.499;entryY=0.993;entryDx=0;entryDy=0;entryPerimeter=0;" edge="1" parent="1" target="UrHmr3pfUTmd6LyERGNY-66">
          <mxGeometry relative="1" as="geometry">
            <mxPoint x="370" y="580" as="sourcePoint" />
            <mxPoint x="560" y="520" as="targetPoint" />
            <Array as="points">
              <mxPoint x="560" y="580" />
            </Array>
          </mxGeometry>
        </mxCell>
      </root>
    </mxGraphModel>
  </diagram>
</mxfile>
